<svg height="512" viewBox="0 0 512 512" width="512" xmlns="http://www.w3.org/2000/svg" xmlns:xlink="http://www.w3.org/1999/xlink"><linearGradient id="New_Gradient_Swatch_8" gradientTransform="translate(5.49 -77.255)" gradientUnits="userSpaceOnUse" x1="75.619" x2="295.769" y1="284.146" y2="63.996"><stop offset="0" stop-color="#f7d1d1"/><stop offset="1" stop-color="#fcf0f0"/></linearGradient><linearGradient id="New_Gradient_Swatch_5" gradientUnits="userSpaceOnUse" x1="76.686" x2="451.314" y1="443.314" y2="68.686"><stop offset="0" stop-color="#e3dede"/><stop offset="1" stop-color="#fff"/></linearGradient><linearGradient id="New_Gradient_Swatch_7" gradientUnits="userSpaceOnUse" x1="74.686" x2="449.314" y1="441.314" y2="66.686"><stop offset="0" stop-color="#816a6a"/><stop offset="1" stop-color="#9d8b8b"/></linearGradient><linearGradient id="New_Gradient_Swatch_12" gradientUnits="userSpaceOnUse" x1="-30.981" x2="343.646" y1="335.646" y2="-38.981"><stop offset="0" stop-color="#c7bdbd"/><stop offset="1" stop-color="#f1eeee"/></linearGradient><linearGradient id="New_Gradient_Swatch_12-2" x1="182.354" x2="556.981" xlink:href="#New_Gradient_Swatch_12" y1="548.981" y2="174.354"/><linearGradient id="New_Gradient_Swatch_3" gradientUnits="userSpaceOnUse" x1="189.082" x2="338.918" y1="288.918" y2="139.082"><stop offset="0" stop-color="#f6d084"/><stop offset="1" stop-color="#fae4b9"/></linearGradient><linearGradient id="New_Gradient_Swatch_21" gradientUnits="userSpaceOnUse" x1="207.458" x2="320.542" y1="270.542" y2="157.458"><stop offset="0" stop-color="#f4c361"/><stop offset="1" stop-color="#f7d796"/></linearGradient><linearGradient id="New_Gradient_Swatch_8-2" gradientTransform="translate(-40.029 30.64)" x1="136.402" x2="271.618" xlink:href="#New_Gradient_Swatch_8" y1="230.988" y2="95.772"/><linearGradient id="New_Gradient_Swatch_8-3" gradientTransform="translate(27.853 58.757)" x1="68.52" x2="203.735" xlink:href="#New_Gradient_Swatch_8" y1="298.87" y2="163.654"/><linearGradient id="New_Gradient_Swatch_8-4" gradientTransform="translate(87.735 90.189)" x1=".638" x2="135.853" xlink:href="#New_Gradient_Swatch_8" y1="355.439" y2="220.223"/><linearGradient id="New_Gradient_Swatch_8-5" x1="310.426" x2="705.054" xlink:href="#New_Gradient_Swatch_8" y1="478.426" y2="83.799"/><g id="_22-mobile" data-name="22-mobile"><g id="gradient"><rect fill="url(#New_Gradient_Swatch_8)" height="225.054" rx="32" transform="matrix(.707 -.707 .707 .707 -59.647 144)" width="64" x="112" y="31.473"/><g id="gradient-2" data-name="gradient"><rect fill="url(#New_Gradient_Swatch_5)" height="496" rx="16" width="272" x="128" y="8"/><path d="m128 63.957h272v376.087h-272z" fill="url(#New_Gradient_Swatch_7)"/><path d="m384 8h-240a16 16 0 0 0 -16 16v39.957h272v-39.957a16 16 0 0 0 -16-16z" fill="url(#New_Gradient_Swatch_12)"/><path d="m128 488a16 16 0 0 0 16 16h240a16 16 0 0 0 16-16v-47.957h-272z" fill="url(#New_Gradient_Swatch_12-2)"/><g fill="#735a5a"><path d="m282.043 480.021h-34.956a8 8 0 1 1 0-16h34.956a8 8 0 0 1 0 16z"/><circle cx="264" cy="39.804" r="8"/></g></g><circle cx="264" cy="214" fill="url(#New_Gradient_Swatch_3)" r="106"/><circle cx="264" cy="214" fill="url(#New_Gradient_Swatch_21)" r="80"/><path d="m272 204h-17a14 14 0 0 1 0-28h24.811a5.508 5.508 0 0 1 5.5 5.744 10 10 0 0 0 19.982.86 25.508 25.508 0 0 0 -25.482-26.604h-5.811v-6a10 10 0 0 0 -20 0v6.025a33.995 33.995 0 0 0 1 67.975h17a14.015 14.015 0 0 1 14 14v1a14.015 14.015 0 0 1 -14 14h-25.209a5.507 5.507 0 0 1 -5.507-5.609l.019-1.038a10 10 0 0 0 -20-.358l-.019 1.036a25.509 25.509 0 0 0 25.507 25.969h7.209v6a10 10 0 0 0 20 0v-6.063a34.041 34.041 0 0 0 32-33.937v-1a34.038 34.038 0 0 0 -34-34z" fill="#fcf2dc"/><rect fill="url(#New_Gradient_Swatch_8-2)" height="128" rx="32" transform="matrix(.707 -.707 .707 .707 -118.144 160.775)" width="64" x="103" y="159"/><rect fill="url(#New_Gradient_Swatch_8-3)" height="128" rx="32" transform="matrix(.707 -.707 .707 .707 -186.026 188.892)" width="64" x="103" y="255"/><rect fill="url(#New_Gradient_Swatch_8-4)" height="128" rx="32" transform="matrix(.707 -.707 .707 .707 -250.595 209.01)" width="64" x="95" y="343"/><path d="m464 184.385a8 8 0 0 0 -8.735-7.973c-28.838 2.774-55.265 19.967-55.265 63.588v72a16 16 0 0 1 -6.4 12.8l-32 24a64 64 0 0 0 -25.6 51.2v104h128z" fill="url(#New_Gradient_Swatch_8-5)"/></g></g></svg>