<?xml version="1.0" encoding="utf-8"?>
<!-- Generator: Adobe Illustrator 21.1.0, SVG Export Plug-In . SVG Version: 6.00 Build 0)  -->
<svg version="1.1"
	 id="svg2" xmlns:cc="http://creativecommons.org/ns#" xmlns:dc="http://purl.org/dc/elements/1.1/" xmlns:rdf="http://www.w3.org/1999/02/22-rdf-syntax-ns#" xmlns:svg="http://www.w3.org/2000/svg"
	 xmlns="http://www.w3.org/2000/svg" xmlns:xlink="http://www.w3.org/1999/xlink" x="0px" y="0px" viewBox="0 0 262.3 271.2"
	 style="enable-background:new 0 0 262.3 271.2;" xml:space="preserve">
<style type="text/css">
	.st0{fill:#FF8C00;}
</style>
<g id="g10" transform="matrix(1.3333333,0,0,-1.3333333,0,482.4)">
	<g id="g12" transform="scale(0.1)">
		<path id="path38" class="st0" d="M1363.6,2189.4c-18.2,0-33.3-6.3-42.7-17.9c-23.9-29.4-13.1-81.3,23.4-113.3
			c16-13.9,39-22.3,61.6-22.3c23,0,42.2,8.6,54,24.3c21.3,28.5,9,69-31.2,103C1408.8,2180.1,1385.7,2189.4,1363.6,2189.4
			 M1564.2,2337.4c-17.8,5.2-31.1,1.3-37.6-10.7c-9.9-18.1-2.6-54.1,17.4-85.3c20.3-31.7,37.6-47.8,51.3-47.8c4.7,0,9,2,12.2,5.7
			c7.6,8.8,10.1,27.1,6.9,50.3C1611.2,2273.3,1596.6,2322.1,1564.2,2337.4 M1961.4,1618.4c18.4-22.8-9.6-45.9-30.4-27.4
			c-208.2,184.4-383.3,236.6-556.5,243.9c-91.9,3.8-183.3-5-278.8-13.4c-19.1-1.7-38.3-3.3-57.8-4.9c-8.5-0.7-17-1.3-25.6-2
			c-33.7-3.6-67.8-5.6-102.4-5.6c-162.9,0-316.7,39.9-457.1,118.7c-140.9,79-252.8,189.4-332.7,328C40.4,2394.1,0,2547,0,2710.2
			c0,163,40.4,316.6,120,456.3c79.8,140,190.5,251.5,328.9,331.3c138.5,79.8,289.5,120.2,448.9,120.2c166.5,0,322.1-40,462.6-118.8
			c140.8-79,253.1-189.7,333.8-329.1c80.5-139.2,121.3-292.5,121.3-455.6c0-63-6.1-124.5-18.1-184.3c-1.5-8.7-3.8-19.2-6.9-31.5
			c-2.3-9.8-4.8-19.6-7.5-29.3l-0.8,0.4c-16.1-51.6-46.2-124.7-102.1-218.6c-6-9.9-9.4-2.4-10.1,3.2
			c-19.6,138-80.1,242.9-186.7,310.6c-1.8,1.1-3.6,2.2-5.3,3.3c-17.5,10.8-36.1,20.5-56,29.3c-25.4,11.2-52.8,20.8-82.3,28.8
			c-18.1,4.9-58.4,2.8-43.8,17.3c6,6,93.3,7.3,193.7,1c1.9-0.1,3.9-0.2,5.9-0.4c1.9,21,2.8,42.6,2.8,64.7
			c0,172.2-57,312.7-174.3,429.3c-117.4,116.7-254.6,173.4-419.6,173.4c-168.9,0-305.9-56.8-418.7-173.7
			c-113.4-117.5-168.6-256.7-168.6-425.7c0-168.6,56.7-307.3,173.3-423.9c116.6-116.6,252-173.3,414-173.3c7.8,0,15.4,0.2,23.1,0.5
			c-0.2,2-0.3,3.9-0.5,5.9c-9.3,118.9-11.3,217.7,13.2,177.8c8.6-14.1,17.2-27.4,25.8-40.2c31.9-47.7,63.5-87,95-119.6
			c1.6-1.6,3.2-3.2,4.8-4.8c115.1-116.8,228.4-145.6,348.9-175.2c2.6-0.7,5.1-1.3,7.7-1.9c19.7-4.9,39.6-9.8,59.8-15.2
			C1625.4,1904.3,1780.5,1842.7,1961.4,1618.4"/>
	</g>
</g>
</svg>
